<mxfile host="65bd71144e">
    <diagram id="uZTUeigNd-vCTFo9KAGS" name="Page-1">
        <mxGraphModel dx="668" dy="508" grid="1" gridSize="10" guides="1" tooltips="1" connect="1" arrows="1" fold="1" page="1" pageScale="1" pageWidth="850" pageHeight="1100" math="0" shadow="0">
            <root>
                <mxCell id="0"/>
                <mxCell id="1" parent="0"/>
                <mxCell id="2" value="" style="whiteSpace=wrap;html=1;" vertex="1" parent="1">
                    <mxGeometry x="40" y="30" width="760" height="620" as="geometry"/>
                </mxCell>
                <mxCell id="3" value="" style="whiteSpace=wrap;html=1;" vertex="1" parent="1">
                    <mxGeometry x="60" y="40" width="720" height="60" as="geometry"/>
                </mxCell>
                <mxCell id="4" value="Home/About" style="whiteSpace=wrap;html=1;" vertex="1" parent="1">
                    <mxGeometry x="110" y="50" width="80" height="40" as="geometry"/>
                </mxCell>
                <mxCell id="5" value="Entries" style="whiteSpace=wrap;html=1;" vertex="1" parent="1">
                    <mxGeometry x="385" y="50" width="80" height="40" as="geometry"/>
                </mxCell>
                <mxCell id="6" value="New Entry" style="whiteSpace=wrap;html=1;" vertex="1" parent="1">
                    <mxGeometry x="640" y="50" width="80" height="40" as="geometry"/>
                </mxCell>
                <mxCell id="7" value="VentureLog: A Wonderers Footprint" style="whiteSpace=wrap;html=1;" vertex="1" parent="1">
                    <mxGeometry x="110" y="120" width="610" height="70" as="geometry"/>
                </mxCell>
                <mxCell id="8" value="Main Container&lt;br&gt;&lt;br&gt;&lt;u&gt;Home/About&lt;/u&gt;: Container Will be Empty&lt;br&gt;&lt;br&gt;&lt;u&gt;Entries&lt;/u&gt;: Will Show All the HikerLogCards&lt;br&gt;&lt;u&gt;Entry&lt;/u&gt;: When a card is clicked, it will route to the full view of that card.&lt;br&gt;&lt;br&gt;&lt;u&gt;New Entry&lt;/u&gt;: Will show a form to add a new hiking trail to the list&lt;br&gt;&lt;br&gt;&lt;br&gt;&lt;br&gt;&lt;br&gt;&lt;br&gt;&lt;br&gt;&lt;br&gt;&lt;br&gt;&lt;br&gt;&lt;br&gt;&lt;br&gt;&lt;br&gt;&lt;br&gt;&lt;br&gt;&lt;br&gt;&lt;br&gt;" style="whiteSpace=wrap;html=1;" vertex="1" parent="1">
                    <mxGeometry x="80" y="210" width="680" height="410" as="geometry"/>
                </mxCell>
                <mxCell id="11" value="Entry 1" style="whiteSpace=wrap;html=1;" vertex="1" parent="1">
                    <mxGeometry x="130" y="370" width="120" height="110" as="geometry"/>
                </mxCell>
                <mxCell id="12" value="Entry 3" style="whiteSpace=wrap;html=1;" vertex="1" parent="1">
                    <mxGeometry x="590" y="370" width="120" height="110" as="geometry"/>
                </mxCell>
                <mxCell id="13" value="Entry 2" style="whiteSpace=wrap;html=1;" vertex="1" parent="1">
                    <mxGeometry x="365" y="370" width="120" height="110" as="geometry"/>
                </mxCell>
                <mxCell id="14" value="" style="whiteSpace=wrap;html=1;" vertex="1" parent="1">
                    <mxGeometry x="590" y="500" width="120" height="110" as="geometry"/>
                </mxCell>
                <mxCell id="15" value="" style="whiteSpace=wrap;html=1;" vertex="1" parent="1">
                    <mxGeometry x="370" y="500" width="120" height="110" as="geometry"/>
                </mxCell>
                <mxCell id="16" value="" style="whiteSpace=wrap;html=1;" vertex="1" parent="1">
                    <mxGeometry x="130" y="500" width="120" height="110" as="geometry"/>
                </mxCell>
                <mxCell id="17" value="" style="whiteSpace=wrap;html=1;" vertex="1" parent="1">
                    <mxGeometry x="280" y="680" width="300" height="420" as="geometry"/>
                </mxCell>
                <mxCell id="18" value="Photo/Sketch" style="whiteSpace=wrap;html=1;" vertex="1" parent="1">
                    <mxGeometry x="300" y="780" width="260" height="190" as="geometry"/>
                </mxCell>
                <mxCell id="19" value="Location:&lt;br&gt;Trail:&lt;br&gt;Distance:" style="whiteSpace=wrap;html=1;" vertex="1" parent="1">
                    <mxGeometry x="300" y="700" width="260" height="60" as="geometry"/>
                </mxCell>
                <mxCell id="20" value="Memory" style="whiteSpace=wrap;html=1;" vertex="1" parent="1">
                    <mxGeometry x="300" y="990" width="260" height="90" as="geometry"/>
                </mxCell>
                <mxCell id="21" value="Individual&lt;br&gt;Card:" style="text;html=1;align=center;verticalAlign=middle;resizable=0;points=[];autosize=1;strokeColor=none;fillColor=none;" vertex="1" parent="1">
                    <mxGeometry x="190" y="730" width="70" height="30" as="geometry"/>
                </mxCell>
            </root>
        </mxGraphModel>
    </diagram>
</mxfile>